<?xml version="1.0" encoding="UTF-8"?>
<svg color="#bdeaff" version="1.1" xmlns="http://www.w3.org/2000/svg" width="1024" height="1024">
    <path d="M0 0 C1.11696762 0.00222061 2.23393524 0.00444122 3.38475037 0.00672913 C4.64598221 0.00680466 5.90721405 0.00688019 7.20666504 0.00695801 C8.59341979 0.01206542 9.98017414 0.01728142 11.3669281 0.02259827 C12.77797394 0.0244625 14.18902042 0.02588638 15.60006714 0.02688599 C19.3204272 0.03071072 23.04074845 0.04054062 26.76109314 0.05158997 C30.55482966 0.06180504 34.34857243 0.06638381 38.14231873 0.07142639 C45.59090416 0.08216294 53.03945758 0.09923882 60.48802185 0.12025452 C63.21553171 7.67912035 64.94271184 15.31404246 66.5778656 23.17103577 C66.87672884 24.5865813 67.17612778 26.00201381 67.47601318 27.41734314 C68.12303374 30.47499661 68.76707583 33.53325599 69.40879822 36.59202576 C70.98981548 44.12560476 72.58780012 51.65559342 74.18525314 59.18570137 C74.56393855 60.97090605 74.94244847 62.75614797 75.32078934 64.5414257 C79.62314205 84.83944242 84.02948401 105.11453138 88.44813538 125.38749695 C89.7338715 131.28715512 91.01686446 137.18740768 92.29930115 143.08778381 C97.1466191 165.39483377 97.1466191 165.39483377 102.02882767 187.69426441 C103.34603617 193.68686723 104.65423427 199.68139096 105.95860291 205.67680359 C106.47020235 208.01908373 106.98546429 210.36056752 107.50474548 212.70115662 C108.20126674 215.84149477 108.88522837 218.98431505 109.56614685 222.12806702 C109.76506531 223.00897507 109.96398376 223.88988312 110.16893005 224.79748535 C111.47097977 230.89950631 111.48802185 235.62740254 111.48802185 242.12025452 C92.67802185 242.12025452 73.86802185 242.12025452 54.48802185 242.12025452 C46.48802185 211.72025452 46.48802185 211.72025452 46.48802185 202.12025452 C17.44802185 202.12025452 -11.59197815 202.12025452 -41.51197815 202.12025452 C-49.46844219 219.46612916 -49.46844219 219.46612916 -57.3908844 236.82728577 C-58.51197815 239.12025452 -58.51197815 239.12025452 -60.51197815 242.12025452 C-62.95439148 242.48101807 -62.95439148 242.48101807 -66.06324768 242.46083069 C-67.22430023 242.4606041 -68.38535278 242.4603775 -69.58158875 242.46014404 C-70.83994537 242.44466019 -72.098302 242.42917633 -73.39479065 242.41322327 C-75.32160172 242.406856 -75.32160172 242.406856 -77.28733826 242.40036011 C-80.70370456 242.38890132 -84.1196887 242.35942595 -87.53590393 242.32624817 C-91.02136566 242.29556914 -94.50688909 242.28185945 -97.9924469 242.26673889 C-104.83244772 242.23455673 -111.67219459 242.18334828 -118.51197815 242.12025452 C-114.57308728 221.55878713 -101.93356324 201.31353041 -92.72877502 182.62611389 C-89.50794559 176.08488542 -86.31433698 169.53047638 -83.1287384 162.97203064 C-82.1899606 161.04169803 -81.24749037 159.11320875 -80.30445862 157.18495178 C-77.52360631 151.47841453 -74.78857796 145.75716694 -72.17579651 139.97132874 C-64.5237859 123.02762386 -56.27939961 106.41458702 -47.9254303 89.80982971 C-46.08348171 86.14655974 -44.24615674 82.48097252 -42.40846252 78.81556702 C-39.69978054 73.41391764 -36.98853255 68.01356781 -34.2749176 62.61439514 C-30.63774597 55.37682843 -27.01472252 48.13221451 -23.39439106 40.88621235 C-22.04740826 38.19051877 -20.69959314 35.49524146 -19.3518219 32.79994202 C-18.87140442 31.83902649 -18.39098694 30.87811096 -17.89601135 29.88807678 C-16.89871094 27.89364428 -15.90113582 25.89934912 -14.90333557 23.90516663 C-12.67053846 19.44205054 -10.43915005 14.97834087 -8.22291565 10.50697327 C-7.89557434 9.84777893 -7.56823303 9.18858459 -7.23097229 8.50941467 C-6.39219863 6.81921684 -5.55551207 5.12798369 -4.7190094 3.43666077 C-3.00315137 0.14376818 -3.00315137 0.14376818 0 0 Z M19.48802185 67.12025452 C14.92528885 75.90160378 10.69868563 84.77322598 6.80052185 93.87025452 C2.96552587 102.81380858 -1.02707061 111.67516921 -5.13697815 120.49525452 C-5.96334778 122.26956848 -5.96334778 122.26956848 -6.80641174 124.07972717 C-9.22660911 129.26275985 -11.65897921 134.43963601 -14.1174469 139.60462952 C-14.49627014 140.40207581 -14.87509338 141.19952209 -15.26539612 142.02113342 C-15.9493832 143.45753782 -16.63695823 144.89224172 -17.32887268 146.32484436 C-18.9761803 149.57693376 -18.9761803 149.57693376 -19.51197815 153.12025452 C-1.03197815 153.12025452 17.44802185 153.12025452 36.48802185 153.12025452 C35.68770546 145.73616411 35.68770546 145.73616411 34.4282074 138.50648499 C34.22096542 137.50028107 34.01372345 136.49407715 33.80020142 135.4573822 C33.57729935 134.39480194 33.35439728 133.33222168 33.1247406 132.23744202 C32.89148575 131.10613861 32.6582309 129.97483521 32.41790771 128.80924988 C31.67431514 125.20377139 30.92552 121.59940558 30.17552185 117.99525452 C26.65776888 101.07990466 23.31639239 84.16590511 20.48802185 67.12025452 C20.15802185 67.12025452 19.82802185 67.12025452 19.48802185 67.12025452 Z "
          fill="currentColor" transform="translate(774.5119781494141,386.87974548339844)"/>
    <path d="M0 0 C9.7095742 -0.11583031 19.41898415 -0.20468288 29.12910843 -0.25906086 C33.63791551 -0.28515929 38.14625005 -0.32056122 42.65478516 -0.37719727 C47.00551753 -0.43150921 51.35579532 -0.46141868 55.70684052 -0.47438622 C57.36709501 -0.48362767 59.02732451 -0.50167443 60.68738556 -0.52865028 C63.01251551 -0.56493208 65.33576551 -0.56994607 67.66113281 -0.56762695 C68.3480571 -0.58560333 69.03498138 -0.60357971 69.74272156 -0.62210083 C73.43197166 -0.58226579 74.75355548 -0.24569229 77.4095459 2.40219116 C78.90692491 4.84797342 79.6761033 6.55014634 80.203125 9.33984375 C80.37448975 10.21366699 80.54585449 11.08749023 80.72241211 11.98779297 C80.89651611 12.96119629 81.07062012 13.93459961 81.25 14.9375 C81.55079468 16.52522217 81.55079468 16.52522217 81.85766602 18.14501953 C82.59443664 22.09276208 83.30046799 26.04553738 84 30 C84.21846588 31.23009796 84.21846588 31.23009796 84.44134521 32.48504639 C87.54738734 49.98595355 90.56394274 67.50241322 93.53125 85.02734375 C96.48188744 102.43689861 99.57204809 119.81786881 102.75 137.1875 C103.04522049 138.8074437 103.04522049 138.8074437 103.34640503 140.46011353 C103.91033126 143.55077165 104.47797994 146.64072182 105.046875 149.73046875 C105.29809868 151.10946854 105.29809868 151.10946854 105.55439758 152.5163269 C106.52102981 157.73580819 107.65728866 162.86401711 109 168 C117.22725825 151.76918539 125.07653604 135.35291578 132.89453125 118.921875 C137.75932574 108.70175472 142.70454474 98.53250105 147.79789734 88.42417908 C150.93526962 82.17926914 153.97310789 75.89381852 156.96484375 69.578125 C163.19658506 56.49067868 169.66270051 43.52297071 176.15490723 30.56323242 C177.38679252 28.10211283 178.61565276 25.63948769 179.84458256 23.17689133 C181.32283811 20.21591663 182.80412138 17.25646051 184.28515625 14.296875 C184.83091812 13.20332703 185.37667999 12.10977905 185.9389801 10.98309326 C186.44388474 9.97643616 186.94878937 8.96977905 187.46899414 7.93261719 C187.91102676 7.04934753 188.35305939 6.16607788 188.80848694 5.25604248 C190 3 190 3 192 0 C194.3664856 -0.36076355 194.3664856 -0.36076355 197.36767578 -0.34057617 C198.48868683 -0.34034958 199.60969788 -0.34012299 200.76467896 -0.33988953 C201.97928802 -0.32440567 203.19389709 -0.30892181 204.4453125 -0.29296875 C206.30553543 -0.28660149 206.30553543 -0.28660149 208.20333862 -0.28010559 C211.50135463 -0.26613216 214.7989335 -0.23917361 218.09680176 -0.20599365 C221.46161542 -0.17531238 224.82649304 -0.16160446 228.19140625 -0.14648438 C234.79444271 -0.1133473 241.39718558 -0.06309697 248 0 C242.8223306 13.67139856 242.8223306 13.67139856 239.94921875 19.796875 C239.41965576 20.93165283 238.89009277 22.06643066 238.34448242 23.2355957 C237.79767822 24.39534912 237.25087402 25.55510254 236.6875 26.75 C236.10814629 27.98576492 235.52913001 29.22168808 234.95043945 30.45776367 C233.81556217 32.88030512 232.67802637 35.30153865 231.5390625 37.72216797 C230.23511138 40.49926944 228.94154635 43.28064118 227.65625 46.06640625 C224.59792357 52.67536431 221.42176491 59.1669197 217.9375 65.5625 C213.38551769 73.93564178 209.67026297 82.61113896 205.99755859 91.3984375 C201.50146417 102.15388275 196.74771932 112.66571395 191.44726562 123.04956055 C186.36078 133.10029433 181.78588642 143.37345649 177.19511414 153.65693665 C170.04831628 169.65166624 162.35244023 185.25857865 154.26660156 200.7980957 C148.80887655 211.29879803 143.58394538 221.84083989 138.83511353 232.68388367 C138.49040009 233.46922989 138.14568665 234.25457611 137.79052734 235.0637207 C137.49157562 235.7534346 137.1926239 236.4431485 136.88461304 237.15376282 C136 239 136 239 134 242 C131.177948 242.36076355 131.177948 242.36076355 127.53076172 242.34057617 C126.53545944 242.34123329 126.53545944 242.34123329 125.52005005 242.34190369 C123.322965 242.33981068 121.12663951 242.31645699 118.9296875 242.29296875 C117.4079734 242.28737458 115.8862539 242.28310364 114.36453247 242.28010559 C110.35635501 242.26864261 106.34850288 242.2391633 102.3404541 242.20599365 C98.25175376 242.17532384 94.16300093 242.16160689 90.07421875 242.14648438 C82.04932975 242.11429467 74.02470532 242.06308116 66 242 C64.75896288 237.67136269 63.54635594 233.34070573 62.40625 228.984375 C58.77031759 215.17479611 55.01342093 201.4103768 51.0625 187.6875 C44.35180185 164.35266698 38.00679305 140.9308282 31.875 117.4375 C18.2238745 64.76200485 18.2238745 64.76200485 3.1484375 12.4831543 C2.82473427 11.42016869 2.82473427 11.42016869 2.49449158 10.33570862 C1.92390493 8.46763596 1.34804159 6.60117724 0.77172852 4.73486328 C0 2 0 2 0 0 Z "
          fill="currentColor" transform="translate(153,387)"/>
    <path d="M0 0 C-4.69091619 26.72084852 -4.69091619 26.72084852 -7.1875 39.5625 C-7.41904785 40.79081543 -7.41904785 40.79081543 -7.65527344 42.04394531 C-8.35544282 45.57820593 -8.97701367 47.9655205 -11 51 C-11.95777344 50.63648438 -12.91554688 50.27296875 -13.90234375 49.8984375 C-17.4973781 48.53762335 -21.09985146 47.19736531 -24.70361328 45.85986328 C-26.87997552 45.04494219 -29.04749441 44.20962426 -31.21484375 43.37109375 C-50.86337741 35.90751801 -77.94574498 30.59122751 -98 39 C-104.0553384 41.98292532 -107.78846094 44.84999844 -110.25 51.25 C-111.42718113 57.13590563 -111.22382134 61.04953473 -108 66.1875 C-100.70717563 73.83725337 -89.02878369 77.01084051 -79.4375 80.875 C-70.69001671 84.41673504 -61.95326991 87.9729702 -53.30078125 91.7421875 C-52.65741318 92.02125946 -52.0140451 92.30033142 -51.35118103 92.58786011 C-33.71915638 100.32972592 -19.84536076 111.66746754 -11.98046875 129.484375 C-6.26047813 144.16036686 -9.60309608 163.10411399 -15.765625 177.15625 C-27.26549049 201.90338193 -46.27759045 217.29343015 -71.57275391 226.54223633 C-110.22496341 239.83498987 -155.0489225 233.94112091 -192 218 C-189.90998326 199.38889855 -186.05365641 181.26058272 -182 163 C-176.44519849 164.74991618 -171.20932531 166.75128324 -165.9375 169.25 C-139.52262157 181.15226745 -109.55702408 186.55881648 -81.4921875 177.16015625 C-77.39632164 175.39938735 -74.75148343 173.34389376 -72.75390625 169.1875 C-70.74319948 163.3533249 -68.75706752 156.83754264 -71.3125 150.9375 C-71.869375 149.968125 -72.42625 148.99875 -73 148 C-73.33 147.01 -73.66 146.02 -74 145 C-76.30104577 143.88913294 -76.30104577 143.88913294 -79 143 C-80.66230825 142.23664395 -82.32100691 141.46539258 -83.9765625 140.6875 C-90.3241954 137.78694011 -96.81747531 135.37914728 -103.375 133 C-140.90282768 119.2912045 -140.90282768 119.2912045 -154 106 C-154.57234375 105.43796875 -155.1446875 104.8759375 -155.734375 104.296875 C-166.08872649 93.30204816 -169.54020624 78.20359232 -169.41967773 63.515625 C-168.82606753 46.4746221 -162.16636709 30.82844689 -151 18 C-150.33355469 17.19046875 -149.66710937 16.3809375 -148.98046875 15.546875 C-134.80853857 -1.10195109 -115.31679659 -10.40964094 -94 -14 C-92.70835937 -14.22300781 -91.41671875 -14.44601562 -90.0859375 -14.67578125 C-59.9078132 -19.12085567 -26.57117582 -15.68578318 0 0 Z "
          fill="currentColor" transform="translate(671,399)"/>
    <path d="M0 0 C18.48 0 36.96 0 56 0 C51.88248512 25.04821552 47.50895564 50.04739875 43.08891296 75.04377747 C42.49345135 78.41204286 41.89856666 81.78040971 41.30383301 85.14880371 C35.6839334 116.97424107 30.01197387 148.78984864 24.23632812 180.58740234 C23.75646079 183.23013422 23.27666671 185.87287939 22.796875 188.515625 C22.45547485 190.39460983 22.45547485 190.39460983 22.10717773 192.31155396 C20.83488192 199.33149696 19.58081518 206.35429143 18.34570312 213.38085938 C18.20793583 214.16428082 18.07016853 214.94770226 17.92822647 215.75486374 C17.25924522 219.5616085 16.59233828 223.36870204 15.92840576 227.17633057 C15.68829825 228.54692009 15.44816685 229.91750544 15.20800781 231.28808594 C14.99847473 232.48947205 14.78894165 233.69085815 14.57305908 234.9286499 C14.13015606 237.30241951 13.58565927 239.65736293 13 242 C-5.81 242 -24.62 242 -44 242 C-42.87491146 228.49893751 -42.87491146 228.49893751 -42.03540039 223.87915039 C-41.84713181 222.82776886 -41.65886322 221.77638733 -41.46488953 220.69314575 C-41.26120255 219.58913422 -41.05751556 218.48512268 -40.84765625 217.34765625 C-40.63216629 216.1551828 -40.41667633 214.96270935 -40.19465637 213.73410034 C-39.61102779 210.51257241 -39.02223117 207.29204592 -38.43080902 204.07194138 C-37.93281767 201.35497176 -37.43937981 198.63718257 -36.94584656 195.91940022 C-33.47599933 176.81764159 -29.88654149 157.73938979 -26.25195312 138.66830444 C-23.19263339 122.59683593 -20.31580509 106.50156706 -17.5625 90.375 C-14.32198154 71.40874262 -10.94002302 52.4719113 -7.43110275 33.55371857 C-7.06474895 31.57464901 -6.70043173 29.5952147 -6.33670044 27.61566162 C-5.65834955 23.93153017 -4.97292023 20.24879056 -4.28515625 16.56640625 C-4.08345825 15.46685104 -3.88176025 14.36729584 -3.6739502 13.23442078 C-3.4825647 12.21934952 -3.2911792 11.20427826 -3.09399414 10.15844727 C-2.93016739 9.27826431 -2.76634064 8.39808136 -2.59754944 7.4912262 C-2 5 -2 5 0 0 Z "
          fill="currentColor" transform="translate(428,387)"/>
</svg>
